<?xml version="1.0" encoding="UTF-8" standalone="no"?>
<!-- Created with Inkscape (http://www.inkscape.org/) -->

<svg
   id="svg3506"
   width="48"
   height="48"
   version="1.0"
   sodipodi:docname="address-book-remove.svg"
   inkscape:version="1.1.2 (0a00cf5339, 2022-02-04)"
   xmlns:inkscape="http://www.inkscape.org/namespaces/inkscape"
   xmlns:sodipodi="http://sodipodi.sourceforge.net/DTD/sodipodi-0.dtd"
   xmlns:xlink="http://www.w3.org/1999/xlink"
   xmlns="http://www.w3.org/2000/svg"
   xmlns:svg="http://www.w3.org/2000/svg"
   xmlns:rdf="http://www.w3.org/1999/02/22-rdf-syntax-ns#"
   xmlns:cc="http://creativecommons.org/ns#"
   xmlns:dc="http://purl.org/dc/elements/1.1/">
  <sodipodi:namedview
     id="namedview63"
     pagecolor="#ffffff"
     bordercolor="#111111"
     borderopacity="1"
     inkscape:pageshadow="0"
     inkscape:pageopacity="0"
     inkscape:pagecheckerboard="1"
     showgrid="false"
     inkscape:zoom="17.291667"
     inkscape:cx="24"
     inkscape:cy="33.831325"
     inkscape:window-width="1920"
     inkscape:window-height="1012"
     inkscape:window-x="0"
     inkscape:window-y="0"
     inkscape:window-maximized="1"
     inkscape:current-layer="svg3506" />
  <metadata
     id="metadata53">
    <rdf:RDF>
      <cc:Work
         rdf:about="">
        <dc:format>image/svg+xml</dc:format>
        <dc:type
           rdf:resource="http://purl.org/dc/dcmitype/StillImage" />
      </cc:Work>
    </rdf:RDF>
  </metadata>
  <defs
     id="defs3508">
    <radialGradient
       id="radialGradient3873"
       cx="605.71"
       cy="486.65"
       r="117.14"
       gradientTransform="matrix(0.024097,0,0,0.015375,26.478,38.629)"
       gradientUnits="userSpaceOnUse"
       xlink:href="#linearGradient5060" />
    <linearGradient
       id="linearGradient5060">
      <stop
         id="stop5062"
         offset="0" />
      <stop
         id="stop5064"
         style="stop-opacity:0"
         offset="1" />
    </linearGradient>
    <radialGradient
       id="radialGradient3586"
       cx="605.71"
       cy="486.65"
       r="117.14"
       gradientTransform="matrix(-0.024097,0,0,0.015375,21.522,38.629)"
       gradientUnits="userSpaceOnUse"
       xlink:href="#linearGradient5060" />
    <linearGradient
       id="linearGradient3584"
       x1="302.86"
       x2="302.86"
       y1="366.65"
       y2="609.51"
       gradientTransform="matrix(0.070414,0,0,0.015375,-1.4497,38.629)"
       gradientUnits="userSpaceOnUse">
      <stop
         id="stop5050"
         style="stop-opacity:0"
         offset="0" />
      <stop
         id="stop5056"
         offset=".5" />
      <stop
         id="stop5052"
         style="stop-opacity:0"
         offset="1" />
    </linearGradient>
    <linearGradient
       id="linearGradient2878"
       x1="22.334"
       x2="53.453"
       y1="11.03"
       y2="61.22"
       gradientTransform="matrix(0.70071,0,0,0.75439,2.0789,-0.16914)"
       gradientUnits="userSpaceOnUse">
      <stop
         id="stop3321"
         style="stop-color:#af9b7f"
         offset="0" />
      <stop
         id="stop3323"
         style="stop-color:#736148"
         offset="1" />
    </linearGradient>
    <linearGradient
       id="linearGradient2876"
       x1="16.102"
       x2="38.491"
       y1="9.8889"
       y2="46"
       gradientTransform="matrix(0.97391,0,0,1.0485,2.0472,-2.2169)"
       gradientUnits="userSpaceOnUse">
      <stop
         id="stop8969"
         style="stop-color:#ddcfbd"
         offset="0" />
      <stop
         id="stop8971"
         style="stop-color:#856f50"
         offset="1" />
    </linearGradient>
    <linearGradient
       id="linearGradient2873"
       x1="5.4801"
       x2="8.5001"
       y1="25.019"
       y2="25.019"
       gradientTransform="matrix(0.83712,0,0,1.0428,1.9516,-2.0972)"
       gradientUnits="userSpaceOnUse">
      <stop
         id="stop8980"
         style="stop-color:#4d5459;stop-opacity:.99608"
         offset="0" />
      <stop
         id="stop8982"
         style="stop-color:#141b1f"
         offset="1" />
    </linearGradient>
    <linearGradient
       id="linearGradient2867"
       x1="5.7542"
       x2="55.495"
       y1="5.2438"
       y2=".065302"
       gradientTransform="matrix(0.71628,0,0,0.74716,2.1542,-0.051651)"
       gradientUnits="userSpaceOnUse">
      <stop
         id="stop3915"
         style="stop-color:#4e555a"
         offset="0" />
      <stop
         id="stop3917"
         style="stop-color:#151c20"
         offset=".15978" />
      <stop
         id="stop3919"
         style="stop-color:#9b876c"
         offset=".16723" />
      <stop
         id="stop3921"
         style="stop-color:#9b876c"
         offset=".75216" />
      <stop
         id="stop3923"
         style="stop-color:#9b876c"
         offset=".9386" />
      <stop
         id="stop3925"
         style="stop-color:#c2c2c2"
         offset=".94891" />
      <stop
         id="stop3927"
         style="stop-color:#c2c2c2"
         offset="1" />
    </linearGradient>
    <linearGradient
       id="linearGradient2865"
       x1="24.627"
       x2="24.64"
       y1="3.1234"
       y2="4.8826"
       gradientTransform="matrix(1.004,0,0,1.5381,1.2233,-4.04)"
       gradientUnits="userSpaceOnUse">
      <stop
         id="stop2348"
         style="stop-color:#eee"
         offset="0" />
      <stop
         id="stop2350"
         style="stop-color:#d9d9da"
         offset="1" />
    </linearGradient>
    <linearGradient
       id="linearGradient3204"
       x1="28.252"
       x2="40.978"
       y1="4.0341"
       y2="24.62"
       gradientUnits="userSpaceOnUse">
      <stop
         id="stop3200"
         style="stop-color:#fff"
         offset="0" />
      <stop
         id="stop3202"
         style="stop-color:#fff;stop-opacity:0"
         offset="1" />
    </linearGradient>
    <linearGradient
       id="linearGradient5530"
       x1="22.369"
       x2="22.369"
       y1="8.0323"
       y2="38.274"
       gradientTransform="matrix(0.59882,0,0,0.5952,23.605,23.219)"
       gradientUnits="userSpaceOnUse">
      <stop
         id="stop3945"
         style="stop-color:#fff"
         offset="0" />
      <stop
         id="stop3947"
         style="stop-color:#fff;stop-opacity:0"
         offset="1" />
    </linearGradient>
    <radialGradient
       id="radialGradient3088"
       cx="69.448"
       cy="51.695"
       r="31"
       gradientTransform="matrix(0,0.67924,-0.73892,0,72.903,-17.49)"
       gradientUnits="userSpaceOnUse">
      <stop
         id="stop3244-5"
         style="stop-color:#eef87e"
         offset="0" />
      <stop
         id="stop3246-9"
         style="stop-color:#cde34f"
         offset=".26238" />
      <stop
         id="stop3248-7"
         style="stop-color:#93b723"
         offset=".66094" />
      <stop
         id="stop3250-8"
         style="stop-color:#5a7e0d"
         offset="1" />
    </radialGradient>
    <linearGradient
       id="linearGradient3090"
       x1="72.422"
       x2="72.422"
       y1="123.19"
       y2="52.809"
       gradientTransform="matrix(0.28214,0,0,0.28445,12.171,11.958)"
       gradientUnits="userSpaceOnUse">
      <stop
         id="stop2492-3"
         style="stop-color:#365f0e"
         offset="0" />
      <stop
         id="stop2494-8"
         style="stop-color:#84a718"
         offset="1" />
    </linearGradient>
    <linearGradient
       id="linearGradient2834"
       x1="23.878"
       x2="23.878"
       y1="19.201"
       y2="26.834999"
       gradientTransform="matrix(0.90002537,0,0,0.76888728,16.734461,19.891448)"
       gradientUnits="userSpaceOnUse">
      <stop
         id="stop3945-3"
         style="stop-color:#e35d4f"
         offset="0" />
      <stop
         id="stop3947-6"
         style="stop-color:#c6262e"
         offset="1" />
    </linearGradient>
  </defs>
  <g
     id="g2877"
     transform="matrix(0.95613,0,0,0.95613,1.045,1.1059)">
    <rect
       id="rect2879"
       x="7"
       y="44.265999"
       width="34"
       height="3.7339001"
       style="opacity:0.40206;fill:url(#linearGradient3584)" />
    <path
       id="path2881"
       d="m 7,44.266 v 3.7337 C 5.7591,48.0067 4,47.16318 4,46.1326 4,45.1021 5.3848,44.266 7,44.266 Z"
       style="opacity:0.40206;fill:url(#radialGradient3586)" />
    <path
       id="path2883"
       d="m 41,44.266 v 3.7337 c 1.2409,0.007 3,-0.83652 3,-1.8671 0,-1.0305 -1.3848,-1.8666 -3,-1.8666 z"
       style="opacity:0.40206;fill:url(#radialGradient3873)" />
  </g>
  <rect
     id="rect2719"
     x="7.5128999"
     y="3.5499001"
     width="33.978001"
     height="41.941002"
     rx="0.30969"
     ry="0.33013001"
     style="fill:url(#linearGradient2876);stroke:url(#linearGradient2878);stroke-width:1.019;stroke-linecap:round;stroke-linejoin:round;stroke-miterlimit:0" />
  <path
     id="path2721"
     d="m 6.1372,2.074 c 2.4185,1.5303 4.5835,0.89566 5.8598,1.0536 v 42.744 H 7.3334 c 0,0 -1.1963,0 -1.1963,-1.2259 V 2.0737 Z"
     style="fill:url(#linearGradient2873)" />
  <rect
     id="rect2725"
     x="10.112"
     y="4.2750001"
     width="1.7801"
     height="40.77"
     rx="0.64036"
     ry="0.79861999"
     style="fill:#4d4d4d" />
  <path
     id="path2781"
     d="m 24.161,24.538 c -9e-6,1.0501 0.21567,1.8783 0.64706,2.4844 0.43966,0.60616 1.0328,0.90924 1.7794,0.90924 0.7383,4e-6 1.3273,-0.30308 1.767,-0.90924 0.43966,-0.6147 0.65949,-1.4428 0.6595,-2.4844 -1.7e-5,-1.033 -0.224,-1.8484 -0.67194,-2.446 -0.43969,-0.60615 -1.0328,-0.90923 -1.7794,-0.90924 -0.73003,1.1e-5 -1.3149,0.30309 -1.7545,0.90924 -0.43138,0.59764 -0.64707,1.413 -0.64706,2.446 m 5.1018,3.8547 c -0.24888,0.60616 -0.65122,1.08 -1.207,1.4215 -0.54752,0.33296 -1.1904,0.49944 -1.9287,0.49944 -1.4269,1e-6 -2.5882,-0.52932 -3.4842,-1.588 -0.88764,-1.0672 -1.3315,-2.4545 -1.3314,-4.162 -9e-6,-1.7075 0.44795,-3.0948 1.3439,-4.162 0.89592,-1.0672 2.0532,-1.6008 3.4717,-1.6008 0.73829,1.4e-5 1.3812,0.17076 1.9287,0.51225 0.5558,0.34151 0.95813,0.81534 1.207,1.4215 v -1.6776 h 2.6007 v 8.8747 c 1.0286,-0.16221 1.8375,-0.67019 2.4265,-1.5239 0.58897,-0.86228 0.88346,-1.9636 0.88349,-3.304 -2.2e-5,-0.85374 -0.1203,-1.652 -0.36086,-2.3948 -0.24059,-0.75129 -0.6056,-1.4386 -1.095,-2.0618 -0.7881,-1.0416 -1.7753,-1.8441 -2.9615,-2.4076 -1.178,-0.56346 -2.4555,-0.8452 -3.8326,-0.84521 -0.96231,1.5e-5 -1.8831,0.13235 -2.7624,0.39699 -0.87935,0.25614 -1.6923,0.63606 -2.4389,1.1398 -1.2278,0.83669 -2.1859,1.9209 -2.8744,3.2528 -0.68024,1.3233 -1.0204,2.7576 -1.0204,4.3029 -5e-6,1.2721 0.21983,2.4673 0.6595,3.5857 0.44796,1.1099 1.0909,2.0917 1.9287,2.9454 0.82955,0.83667 1.7794,1.4727 2.8495,1.9081 1.0784,0.44395 2.2274,0.66592 3.4468,0.66592 1.0452,-3e-6 2.0905,-0.20063 3.1357,-0.60189 1.0452,-0.40126 1.937,-0.94339 2.6753,-1.6264 l 1.3314,2.0746 c -1.037,0.82813 -2.1693,1.4599 -3.3971,1.8953 -1.2195,0.44394 -2.4597,0.66592 -3.7206,0.66592 -1.5347,-6e-6 -2.9823,-0.28174 -4.3428,-0.84521 -1.3605,-0.55494 -2.5717,-1.366 -3.6335,-2.4332 -1.0618,-1.0672 -1.8707,-2.3009 -2.4265,-3.701 -0.55581,-1.4087 -0.83371,-2.9198 -0.83371,-4.5334 -1e-6,-1.5538 0.28205,-3.0351 0.84615,-4.4438 0.5641,-1.4087 1.3688,-2.6466 2.414,-3.7138 1.0452,-1.0586 2.2606,-1.8782 3.6459,-2.4588 1.3937,-0.58053 2.8371,-0.8708 4.3303,-0.87082 1.8582,1.8e-5 3.5464,0.36713 5.0645,1.1013 1.5181,0.72571 2.7873,1.7758 3.8077,3.1503 0.62215,0.83669 1.0909,1.7459 1.4061,2.7277 0.32351,0.97329 0.48527,1.9978 0.4853,3.0735 -2.7e-5,2.3137 -0.67612,4.1108 -2.0283,5.3914 -1.3522,1.2806 -3.2602,1.9209 -5.724,1.9209 h -0.48529 v -1.9722"
     style="opacity:0.4;fill:#ffffff" />
  <path
     id="path4743"
     d="M 12.446,4.5505 40.494,4.517485 v 40.205"
     style="opacity:0.4;fill:none;stroke:url(#linearGradient3204);stroke-width:0.96683;stroke-linecap:square;stroke-linejoin:round" />
  <path
     id="path2723"
     d="M 40.839,3.2172 C 40.5436,2.22598 40.72771,1.4541 40.56456,0.5088 h -30.24 c -1.5703,0 -3.1218,0.23031 -3.5596,1.1674 -0.024663,0.052796 -0.051917,0.106 -0.067151,0.16344 -0.40166,0.96605 1.2618,1.7216 3.8052,1.7216 h 1.5149"
     style="fill:url(#linearGradient2865);stroke:url(#linearGradient2867);stroke-width:1.0174;stroke-linejoin:round;stroke-miterlimit:0" />
  <path
     id="path4494"
     d="M 41.308,3.5555 H 11.989"
     style="fill:#a18d72;fill-rule:evenodd;stroke:#a18d72;stroke-width:1px" />
  <path
     id="path2779"
     d="m 24.161,23.538 c -9e-6,1.0501 0.21567,1.8783 0.64706,2.4844 0.43966,0.60617 1.0328,0.90924 1.7794,0.90924 0.7383,3e-6 1.3273,-0.30307 1.767,-0.90924 0.43966,-0.61469 0.65949,-1.4428 0.6595,-2.4844 -1.7e-5,-1.033 -0.224,-1.8484 -0.67194,-2.446 -0.43969,-0.60615 -1.0328,-0.90923 -1.7794,-0.90924 -0.73003,1e-5 -1.3149,0.30309 -1.7545,0.90924 -0.43138,0.59764 -0.64707,1.413 -0.64706,2.446 m 5.1018,3.8547 c -0.24888,0.60616 -0.65122,1.08 -1.207,1.4215 -0.54752,0.33296 -1.1904,0.49944 -1.9287,0.49944 -1.4269,2e-6 -2.5882,-0.52932 -3.4842,-1.588 -0.88764,-1.0672 -1.3315,-2.4545 -1.3314,-4.162 -9e-6,-1.7075 0.44795,-3.0948 1.3439,-4.162 0.89592,-1.0672 2.0532,-1.6008 3.4717,-1.6008 0.73829,1.3e-5 1.3812,0.17076 1.9287,0.51225 0.5558,0.34151 0.95813,0.81534 1.207,1.4215 v -1.6776 h 2.6007 v 8.8747 c 1.0286,-0.16221 1.8375,-0.67019 2.4265,-1.5239 0.58897,-0.86228 0.88346,-1.9636 0.88349,-3.304 -2.2e-5,-0.85374 -0.1203,-1.652 -0.36086,-2.3948 -0.24059,-0.75129 -0.6056,-1.4386 -1.095,-2.0618 -0.7881,-1.0416 -1.7753,-1.8441 -2.9615,-2.4076 -1.178,-0.56346 -2.4555,-0.8452 -3.8326,-0.84521 -0.96231,1.4e-5 -1.8831,0.13234 -2.7624,0.39699 -0.87935,0.25614 -1.6923,0.63606 -2.4389,1.1398 -1.2278,0.83668 -2.1859,1.9209 -2.8744,3.2528 -0.68024,1.3233 -1.0204,2.7576 -1.0204,4.3029 -5e-6,1.2721 0.21983,2.4673 0.6595,3.5857 0.44796,1.1099 1.0909,2.0917 1.9287,2.9454 0.82955,0.83667 1.7794,1.4727 2.8495,1.9081 1.0784,0.44395 2.2274,0.66592 3.4468,0.66592 1.0452,-2e-6 2.0905,-0.20063 3.1357,-0.60189 1.0452,-0.40126 1.937,-0.94339 2.6753,-1.6264 l 1.3314,2.0746 c -1.037,0.82813 -2.1693,1.4599 -3.3971,1.8953 -1.2195,0.44395 -2.4597,0.66592 -3.7206,0.66593 -1.5347,-4e-6 -2.9823,-0.28174 -4.3428,-0.84521 -1.3605,-0.55494 -2.5717,-1.366 -3.6335,-2.4332 -1.0618,-1.0672 -1.8707,-2.3008 -2.4265,-3.701 -0.55581,-1.4087 -0.83371,-2.9198 -0.83371,-4.5334 -1e-6,-1.5538 0.28205,-3.0351 0.84615,-4.4438 0.5641,-1.4087 1.3688,-2.6466 2.414,-3.7138 1.0452,-1.0586 2.2606,-1.8782 3.6459,-2.4588 1.3937,-0.58053 2.8371,-0.8708 4.3303,-0.87082 1.8582,1.9e-5 3.5464,0.36713 5.0645,1.1013 1.5181,0.7257 2.7873,1.7758 3.8077,3.1503 0.62215,0.83669 1.0909,1.7459 1.4061,2.7277 0.32351,0.97328 0.48527,1.9978 0.4853,3.0735 -2.7e-5,2.3137 -0.67612,4.1108 -2.0283,5.3914 -1.3522,1.2806 -3.2602,1.9209 -5.724,1.9209 h -0.48529 v -1.9722"
     style="fill:#746956" />
  <path
     id="path2262"
     d="m 47.737069,34.864208 v 5.450128 H 28.713174 v -5.450128 z"
     style="fill:url(#linearGradient2834);fill-rule:evenodd;stroke:#a53738;stroke-width:0.452219;stroke-linejoin:round" />
</svg>
