<?xml version="1.0" encoding="UTF-8" standalone="no"?>
<!-- Created with Inkscape (http://www.inkscape.org/) -->

<svg
   id="svg4250"
   width="48"
   height="48"
   version="1.0"
   sodipodi:docname="text-x-python.svg"
   inkscape:version="1.1.2 (0a00cf5339, 2022-02-04)"
   xmlns:inkscape="http://www.inkscape.org/namespaces/inkscape"
   xmlns:sodipodi="http://sodipodi.sourceforge.net/DTD/sodipodi-0.dtd"
   xmlns:xlink="http://www.w3.org/1999/xlink"
   xmlns="http://www.w3.org/2000/svg"
   xmlns:svg="http://www.w3.org/2000/svg">
  <sodipodi:namedview
     id="namedview84"
     pagecolor="#ffffff"
     bordercolor="#111111"
     borderopacity="1"
     inkscape:pageshadow="0"
     inkscape:pageopacity="0"
     inkscape:pagecheckerboard="1"
     showgrid="false"
     inkscape:zoom="12.227055"
     inkscape:cx="21.182534"
     inkscape:cy="21.918606"
     inkscape:window-width="1920"
     inkscape:window-height="1012"
     inkscape:window-x="0"
     inkscape:window-y="0"
     inkscape:window-maximized="1"
     inkscape:current-layer="layer1" />
  <defs
     id="defs4252">
    <linearGradient
       id="linearGradient1077"
       inkscape:swatch="solid">
      <stop
         style="stop-color:#f4f4f4;stop-opacity:1;"
         offset="0"
         id="stop1075" />
    </linearGradient>
    <linearGradient
       id="linearGradient2631"
       x1="302.86"
       x2="302.86"
       y1="366.65"
       y2="609.51"
       gradientTransform="matrix(.067325 0 0 .0147 -.34114 37.04)"
       gradientUnits="userSpaceOnUse">
      <stop
         id="stop5050"
         style="stop-opacity:0"
         offset="0" />
      <stop
         id="stop5056"
         offset=".5" />
      <stop
         id="stop5052"
         style="stop-opacity:0"
         offset="1" />
    </linearGradient>
    <radialGradient
       id="radialGradient2628"
       cx="605.71"
       cy="486.65"
       r="117.14"
       gradientTransform="matrix(-.02304 0 0 .0147 21.623 37.04)"
       gradientUnits="userSpaceOnUse"
       xlink:href="#linearGradient5060" />
    <linearGradient
       id="linearGradient5060">
      <stop
         id="stop5062"
         offset="0" />
      <stop
         id="stop5064"
         style="stop-opacity:0"
         offset="1" />
    </linearGradient>
    <radialGradient
       id="radialGradient2625"
       cx="605.71"
       cy="486.65"
       r="117.14"
       gradientTransform="matrix(.02304 0 0 .0147 26.361 37.04)"
       gradientUnits="userSpaceOnUse"
       xlink:href="#linearGradient5060" />
    <linearGradient
       id="linearGradient2622"
       x1="-51.785999"
       x2="-51.785999"
       y1="50.785999"
       y2="2.9061999"
       gradientTransform="matrix(0.8075,0,0,0.89483,59.41,-2.9806)"
       gradientUnits="userSpaceOnUse"
       xlink:href="#radialGradient3121" />
    <linearGradient
       id="linearGradient2620"
       x1="25.132"
       x2="25.132"
       y1=".98521"
       y2="47.013"
       gradientTransform="matrix(1 0 0 .95617 -1.0065e-7 -1.9149)"
       gradientUnits="userSpaceOnUse">
      <stop
         id="stop3602"
         style="stop-color:#f4f4f4"
         offset="0" />
      <stop
         id="stop3604"
         style="stop-color:#dbdbdb"
         offset="1" />
    </linearGradient>
    <radialGradient
       id="radialGradient2617"
       cx="102"
       cy="112.3"
       r="139.56"
       gradientTransform="matrix(.3617 0 0 -.39078 .85106 47.517)"
       gradientUnits="userSpaceOnUse">
      <stop
         id="stop41"
         style="stop-color:#b7b8b9"
         offset="0" />
      <stop
         id="stop47"
         style="stop-color:#ececec"
         offset=".18851" />
      <stop
         id="stop49"
         style="stop-color:#fafafa;stop-opacity:0"
         offset=".25718" />
      <stop
         id="stop51"
         style="stop-color:#fff;stop-opacity:0"
         offset=".30111" />
      <stop
         id="stop53"
         style="stop-color:#fafafa;stop-opacity:0"
         offset=".5313" />
      <stop
         id="stop55"
         style="stop-color:#ebecec;stop-opacity:0"
         offset=".8449" />
      <stop
         id="stop57"
         style="stop-color:#e1e2e3;stop-opacity:0"
         offset="1" />
    </radialGradient>
    <linearGradient
       id="linearGradient2614"
       x1="24"
       x2="24"
       y1="2"
       y2="46.017"
       gradientTransform="matrix(1 0 0 .97778 0 -.96667)"
       gradientUnits="userSpaceOnUse">
      <stop
         id="stop3213"
         style="stop-color:#fff"
         offset="0" />
      <stop
         id="stop3215"
         style="stop-color:#fff;stop-opacity:0"
         offset="1" />
    </linearGradient>
    <filter
       id="filter3212"
       x="-0.1484589"
       y="-0.1643425"
       width="1.2969178"
       height="1.328685">
      <feGaussianBlur
         id="feGaussianBlur3214"
         stdDeviation="0.77391625" />
    </filter>
    <linearGradient
       id="linearGradient2610"
       x1="32.892"
       x2="36.358"
       y1="8.059"
       y2="5.4565"
       gradientTransform="matrix(.9977 0 0 1.0407 .1638 -1.1058)"
       gradientUnits="userSpaceOnUse">
      <stop
         id="stop8591"
         style="stop-color:#fefefe"
         offset="0" />
      <stop
         id="stop8593"
         style="stop-color:#cbcbcb"
         offset="1" />
    </linearGradient>
    <linearGradient
       id="linearGradient3104">
      <stop
         id="stop3106"
         style="stop-color:#aaa"
         offset="0" />
      <stop
         id="stop3108"
         style="stop-color:#c8c8c8"
         offset="1" />
    </linearGradient>
    <linearGradient
       id="linearGradient3055"
       x1="17.425"
       x2="17.425"
       y1="44.873"
       y2="-.027397"
       gradientTransform="translate(.03013 2.4578e-7)"
       gradientUnits="userSpaceOnUse"
       xlink:href="#linearGradient3104" />
    <radialGradient
       id="radialGradient3121"
       cx="15.116"
       cy="63.965"
       r="12.289"
       gradientTransform="scale(1.644 .60828)"
       gradientUnits="userSpaceOnUse">
      <stop
         id="stop4116"
         offset="0" />
      <stop
         id="stop4118"
         style="stop-opacity:0"
         offset="1" />
    </radialGradient>
    <radialGradient
       id="radialGradient4234"
       cx="23.515"
       cy="23.143"
       r="9.0193"
       gradientTransform="matrix(1.3814e-7 1.3722 -1.4915 1.5015e-7 58.033 -9.1428)"
       gradientUnits="userSpaceOnUse">
      <stop
         id="stop3232"
         style="stop-color:#ffefa7"
         offset="0" />
      <stop
         id="stop3234"
         style="stop-color:#ffc64c"
         offset="1" />
    </radialGradient>
    <linearGradient
       id="linearGradient3132"
       x1="94.693"
       x2="94.693"
       y1="112.51"
       y2="64.053"
       gradientTransform="matrix(.21718 0 0 .21718 5.4071 4.1691)"
       gradientUnits="userSpaceOnUse"
       xlink:href="#linearGradient4126" />
    <linearGradient
       id="linearGradient4242"
       x1="29.812"
       x2="29.812"
       y1="36"
       y2="16.857"
       gradientUnits="userSpaceOnUse">
      <stop
         id="stop4246"
         style="stop-color:#b27700"
         offset="0" />
      <stop
         id="stop4248"
         style="stop-color:#c79f00"
         offset="1" />
    </linearGradient>
    <linearGradient
       id="linearGradient3927"
       x1="31.121"
       x2="31.121"
       y1="17.857"
       y2="35.008"
       gradientUnits="userSpaceOnUse">
      <stop
         id="stop3923"
         style="stop-color:#fff"
         offset="0" />
      <stop
         id="stop3925"
         style="stop-color:#fff;stop-opacity:0"
         offset="1" />
    </linearGradient>
    <radialGradient
       id="radialGradient4129"
       cx="22.504"
       cy="23.333"
       r="9.001"
       gradientTransform="matrix(0 -1.4011 1.3226 0 -7.3801 54.416)"
       gradientUnits="userSpaceOnUse">
      <stop
         id="stop3995"
         style="stop-color:#a3c0d0"
         offset="0" />
      <stop
         id="stop4001"
         style="stop-color:#427da1"
         offset="1" />
    </radialGradient>
    <linearGradient
       id="linearGradient4126">
      <stop
         id="stop4128"
         style="stop-color:#fff"
         offset="0" />
      <stop
         id="stop4130"
         style="stop-color:#fff;stop-opacity:.16495"
         offset="1" />
    </linearGradient>
    <linearGradient
       id="linearGradient3144"
       x1="94.693"
       x2="94.693"
       y1="112.51"
       y2="64.053"
       gradientTransform="matrix(.21718 0 0 .21718 -1.3943 -2.8679)"
       gradientUnits="userSpaceOnUse"
       xlink:href="#linearGradient4126" />
    <linearGradient
       id="linearGradient4137"
       x1="17.849"
       x2="17.849"
       y1="29.074"
       y2="10"
       gradientUnits="userSpaceOnUse">
      <stop
         id="stop2492"
         style="stop-color:#2e4a5a"
         offset="0" />
      <stop
         id="stop2494"
         style="stop-color:#6e8796"
         offset="1" />
    </linearGradient>
    <linearGradient
       id="linearGradient4153"
       x1="25.315"
       x2="25.315"
       y1="10.905"
       y2="35.926"
       gradientUnits="userSpaceOnUse">
      <stop
         id="stop4149"
         style="stop-color:#fff"
         offset="0" />
      <stop
         id="stop4151"
         style="stop-color:#fff;stop-opacity:0"
         offset="1" />
    </linearGradient>
  </defs>
  <g
     id="layer1">
    <rect
       id="rect2879"
       x="7.7378001"
       y="42.43"
       width="32.507999"
       height="3.5701001"
       style="opacity:0.3;fill:url(#linearGradient2631)" />
    <path
       id="path2881"
       d="m 7.7378,42.43 v 3.5699 c -1.1865,0.0067 -2.8684,-0.79982 -2.8684,-1.7852 0,-0.98533 1.324,-1.7847 2.8684,-1.7847 z"
       style="opacity:0.3;fill:url(#radialGradient2628)" />
    <path
       id="path2883"
       d="m 40.246,42.43 v 3.5699 c 1.1865,0.0067 2.8684,-0.79982 2.8684,-1.7852 0,-0.98533 -1.324,-1.7847 -2.8684,-1.7847 z"
       style="opacity:0.3;fill:url(#radialGradient2625)" />
    <path
       id="path4160"
       d="m 6.5,0.4972 h 24.061 c 1.4069,0.47465 8.9655,5.8822 10.939,9.6264 v 34.379 H 6.5 V 0.4966 Z"
       style="display:inline;fill:#f4f4f4;stroke:#000000;stroke-width:1;stroke-linejoin:round;fill-opacity:1;stroke-opacity:1;stroke-miterlimit:4;stroke-dasharray:none" />
    <path
       id="path4191"
       d="M 7.3617,44 C 7.1624,44 7,43.82454 7,43.60922 V 1.40522 C 7,1.18951 7.1624,1.01444 7.3617,1.01444 c 7.4831,0.10801 15.776,-0.16158 23.25,0.026895 l 10.283,8.866 0.10598,33.702 c 0,0.21532 -0.16204,0.39078 -0.3617,0.39078 h -33.277 z"
       style="fill:url(#radialGradient2617)" />
    <path
       id="path2435"
       d="M 40.5,10.259 V 43.522 H 7.5 V 1.477 h 22.866"
       style="opacity:0.6;fill:none;stroke:url(#linearGradient2614);stroke-width:0.99992;stroke-linejoin:round" />
    <path
       id="path12038"
       d="m 28.617,0.92126 c 4.2825,0 2.1532,8.4832 2.1532,8.4832 0,0 10.358,-1.8023 10.358,2.8187 0,-2.6097 -11.302,-10.729 -12.511,-11.302 z"
       style="opacity:0.4;fill-rule:evenodd;filter:url(#filter3212)" />
    <path
       id="path4474"
       d="m 28.617,0.92126 c 3.1865,0 2.3358,7.6619 2.3358,7.6619 0,0 10.175,-0.98105 10.175,3.64 0,-1.1259 0.08591,-1.9322 -0.13378,-2.2836 -1.5783,-2.5242 -8.3955,-8.1884 -10.857,-8.9308 -0.18422,-0.055555 -0.5927,-0.087535 -1.5198,-0.087535 z"
       style="fill:url(#linearGradient2610);fill-rule:evenodd" />
    <path
       id="path4009"
       d="m 11,37 h 3.0367 v 1 H 11 Z m 0,-22 v 1 h 3.0625 v -1 z m 0,2 v 1 h 3.0938 V 17 Z M 11,6 v 1 h 2.375 V 6 Z m 2.6875,0 v 1 h 2.25 V 6 Z M 16.25,6 v 1 h 1.9688 V 6 Z m 2.2812,0 v 1 h 0.875 V 6 Z m 1.1875,0 v 1 h 1.9375 V 6 Z m 2.2812,0 v 1 h 5 V 6 Z m -11,2 v 1 h 3.7812 V 8 Z m 4.1562,0 v 1 h 1.8125 V 8 Z m 2.1562,0 v 1 h 0.84375 V 8 Z m 1.2188,0 v 1 h 1.625 V 8 Z m 2,0 v 1 h 1.625 V 8 Z m 1.9688,0 v 1 h 2.6562 V 8 Z m 3.0312,0 v 1 h 3.4688 V 8 Z m -14.531,2 v 1 h 4.1875 v -1 z m 4.5,0 v 1 h 4.5 v -1 z m -4.5,2 v 1 h 2.3125 v -1 z m 2.625,0 v 1 h 2.1562 v -1 z m 2.4688,0 v 1 h 1.9062 v -1 z m 12.219,18.125 v 0.96875 h 3.5312 V 30.125 Z M 19.9379,37 v 1 h 2.4375 v -1 z m 2.75,0 v 1 h 2.25 v -1 z m 2.5938,0 v 1 h 1.9375 v -1 z m 2.25,0 v 1 h 3.0938 v -1 z m 3.4375,0 v 1 h 5.0312 V 37 Z M 14.4072,15 v 1 h 5.5938 v -1 z m 1.2188,18 v 1 h 4.5938 v -1 z m 15.031,0 v 1 h 1.1562 v -1 z m 1.5,0 v 1 h 0.6875 v -1 z m 1,0 v 1 h 1.8438 v -1 z m -16.031,2 v 1 h 0.8125 v -1 z m 1.0312,0 v 1 h 1.625 v -1 z m 1.875,0 v 1 h 1.625 v -1 z m 5.0312,0 v 1 h 3.375 v -1 z m 3.8438,0 v 1 h 2.2812 v -1 z m 2.5625,0 v 1 h 0.53125 V 35 Z M 11.0007,22 v 1 h 1 v -1 z m 2.5625,8.1562 v 0.96875 h 2.125 V 30.1562 Z M 11.0007,33 v 1 h 4.2812 v -1 z m 0,2 v 1 h 3.6875 v -1 z m 3.9688,0 v 1 h 1.7812 v -1 z m -0.625,2 v 1 h 3.3438 V 37 Z M 11.0007,20 v 1 h 2.3438 v -1 z m 0,4 v 1 h 2.75 v -1 z m 0,2 v 1 h 2.9375 v -1 z m 0,2 v 1 h 2.5312 v -1 z m 0,2.1562 v 0.96875 h 2.2188 V 30.1562 Z"
       style="fill:url(#linearGradient3055)" />
    <path
       id="path2917"
       transform="matrix(0.69296,0,0,0.66888,6.78,5.9746)"
       d="m 45.053,38.909 a 20.203,7.4751 0 1 1 -40.406,0 20.203,7.4751 0 1 1 40.406,0 z"
       style="opacity:0.3;fill:url(#radialGradient3121)" />
    <path
       id="path2732"
       d="m 30.187,32.108 c 0,1.6766 -1.4551,2.5257 -2.9319,2.9492 -2.2217,0.6385 -4.0047,0.54077 -5.8616,0 -1.5506,-0.45172 -2.9319,-1.3747 -2.9319,-2.9492 v -5.5314 c 0,-1.5919 1.3269,-2.9514 2.9319,-2.9514 l 5.7678,-0.375 c 1.9524,0 3.2284,-1.2187 3.2284,-3.2189 l 0.53125,-2.6738 h 2.1978 c 1.707,0 2.5105,1.2683 2.9319,2.9492 0.58637,2.3346 0.61243,4.0807 0,5.9006 -0.59289,1.7678 -1.227,2.9492 -2.9319,2.9492 h -2.9319 -5.8616 v -0.0116 h 5.8616 v 2.963 z"
       style="fill:url(#radialGradient4234)" />
    <path
       id="path2736"
       d="m 26.523,32.475 c 0,-0.61026 0.49299,-1.1054 1.0989,-1.1054 0.60809,0 1.0989,0.49516 1.0989,1.1054 0,0.61243 -0.49082,1.1076 -1.0989,1.1076 -0.60592,0 -1.0989,-0.49516 -1.0989,-1.1076 z"
       style="fill:#ffffff" />
    <path
       id="path2742"
       d="m 30.914,17.357 v 2.5938 c 0,1.6408 -3.3817,3.6875 -3.6562,3.6875 h -5.75 l -1.2379,0.12593 c -1.261,0.32321 -1.1088,1.1481 -1.4809,2.6866 -0.13868,0.56982 -0.24227,1.1031 -0.3125,1.5938 -0.005,0.03505 0.0047,0.05895 0,0.09375 v 1.625 c 3.8357,-4.28 7.9275,-4.6029 9.9688,-4.5938 4.0735,0.01795 5.992,-0.98372 7.9375,-3.1875 -0.0062,-0.04328 0.0067,-0.08135 0,-0.125 -0.07487,-0.49105 -0.20632,-1.0153 -0.34375,-1.5625 -0.19749,-0.78794 -0.45585,-1.4815 -0.875,-2 -0.0084,-0.01037 -0.02276,-0.02102 -0.03125,-0.03125 -0.0048,-0.0035 -0.02642,0.0035 -0.03125,0 -0.01428,-0.01688 -0.01666,-0.04603 -0.03125,-0.0625 -0.02936,-0.02071 -0.03243,-0.04259 -0.0625,-0.0625 -0.0075,-0.008 -0.02372,0.0079 -0.03125,0 -0.44436,-0.28803 -0.98404,-0.50342 -1.5312,-0.59375 -0.49597,-0.08177 -0.99373,-0.14449 -1.5,-0.1875 h -0.3125 -0.71875 z"
       style="opacity:0.6;fill:url(#linearGradient3132)" />
    <path
       id="path2744"
       d="m 30.481,32.108 c 0,1.6766 -1.7489,2.5257 -3.2257,2.9492 -2.2217,0.6385 -4.0047,0.54077 -5.8616,0 -1.5506,-0.45172 -2.9319,-1.3747 -2.9319,-2.9492 v -5.8253 c 0,-1.8862 1.3689,-2.9094 2.9319,-2.9094 l 5.2131,-0.03125 c 1.9524,0 3.9285,-1.9981 3.9285,-3.9983 v -1.9863 h 2.5837 c 1.707,0 2.5105,1.2683 2.9319,2.9492 0.58637,2.3346 0.61243,4.0807 0,5.9006 -0.59289,1.7678 -1.227,3.1591 -2.9319,3.1591 h -2.638 -6.1554 v -0.0116 l 6.1554,0.02099 v 2.7321 z"
       style="fill:none;stroke:url(#linearGradient4242)" />
    <path
       id="path2746"
       d="m 31.037,17.857 v 1.4688 c 0,2.2857 -2.3504,4.5606 -4.591,4.5606 h -5.0625 c -1.3226,0 -2.4062,1.3753 -2.4062,2.6894 v 5.5312 c 0,0.64105 0.22844,1.1191 0.6875,1.5312 0.45906,0.4121 1.1492,0.72606 1.875,0.9375 1.7899,0.52126 3.4221,0.61514 5.5625,0 0.6951,-0.19933 1.6199,-0.57688 2.0851,-0.97971 0.4652,-0.40283 0.80247,-0.79539 0.80247,-1.489 v -2.2276 h -5.6688 -0.5 v -0.5 -0.03125 -0.5 h 0.5 5.875 0.5 v 0.03125 h 2.4375 c 0.73691,0 1.0972,-0.28997 1.4633,-0.71397 0.3661,-0.424 0.6842,-1.2561 0.97423,-2.1209 0.58023,-1.7242 0.57287,-3.3441 0,-5.625 -0.19964,-0.79652 -0.48955,-1.4398 -0.875,-1.875 -0.38545,-0.4352 -0.83284,-0.6875 -1.5625,-0.6875 h -2.0965 z m 1,1 h 1.0965 c 0.31921,0 0.73602,0.25739 0.8125,0.34375 0.2225,0.25122 0.47864,0.76012 0.65625,1.4688 0.54588,2.1734 0.54708,3.5296 0.03125,5.0625 -0.27721,0.82655 -0.56493,1.6043 -0.78125,1.8349 -0.19535,0.20826 -0.60808,0.3125 -0.71875,0.3125 H 31.696 V 27.8482 h -1.5 -5.875 -1.5 v 1.5 0.03125 1.5 h 1.5 4.6688 v 1.2276 c 0,0.44617 -0.59731,0.7235 -0.70009,0.8125 -0.29901,0.25889 -0.82898,0.513 -1.4375,0.6875 -1.9779,0.56843 -3.3753,0.48225 -5.0312,0 -0.62675,-0.18258 -1.1699,-0.45041 -1.4688,-0.71875 -0.007,-0.0063 -0.0242,-0.02468 -0.03125,-0.03125 -0.04214,-0.0405 -0.09399,-0.09133 -0.125,-0.125 -0.0293,-0.03521 -0.07291,-0.09344 -0.09375,-0.125 -0.01166,-0.01898 -0.04784,-0.06906 -0.0625,-0.09375 -0.01517,-0.03504 -0.02221,-0.0859 -0.03125,-0.125 -0.0064,-0.03201 -0.02791,-0.08978 -0.03125,-0.125 -0.0034,-0.04511 0,-0.10518 0,-0.15625 v -5.5312 c 0,-0.75833 0.64842,-1.6894 1.4062,-1.6894 h 5.0625 c 2.8167,-1e-6 5.591,-2.7038 5.591,-5.5606 V 18.8571 Z"
       style="opacity:0.6;fill:url(#linearGradient3927)" />
    <path
       id="path2730"
       d="m 17.854,13.538 c 0,-1.6766 0.44955,-2.5887 2.9319,-3.0231 1.6853,-0.29536 3.8462,-0.33228 5.8616,0 1.5919,0.26278 2.9319,1.4486 2.9319,3.0231 v 5.5314 c 0,1.6223 -1.3009,2.9514 -2.9319,2.9514 l -5.3158,0.29384 c -1.9893,0 -4.0437,1.7381 -4.0437,3.6558 l -0.16791,2.3181 h -2.0154 c -1.7048,0 -2.6973,-1.2292 -3.1143,-2.9492 -0.56248,-2.3107 -0.53859,-3.6876 0,-5.9006 0.46693,-1.9307 1.9589,-2.9492 3.6637,-2.9492 h 2.2 5.8637 v -0.01965 h -5.8637 v -2.9318 z"
       style="display:inline;fill:url(#radialGradient4129)"
       sodipodi:insensitive="true" />
    <path
       id="path2734"
       d="m 19.32,13.17 c 0,-0.61243 0.49082,-1.1076 1.0989,-1.1076 0.60592,0 1.0989,0.49516 1.0989,1.1076 0,0.61026 -0.49299,1.1054 -1.0989,1.1054 -0.60809,0 -1.0989,-0.49516 -1.0989,-1.1054 z"
       style="display:inline;fill:#ffffff" />
    <path
       id="path2738"
       d="m 23.213,10.27 c -0.86737,0.02101 -1.7002,0.12078 -2.4375,0.25 -2.4823,0.43435 -2.9062,1.3547 -2.9062,3.0312 v 2.9062 h 5.8438 v 0.03125 h -5.8438 -2.2188 c -1.7048,0 -3.1893,1.0068 -3.6562,2.9375 -0.31698,1.3025 -0.46044,2.3222 -0.40625,3.4062 3.8616,-4.3769 8.0052,-4.6968 10.062,-4.6875 4.0735,0.01795 5.992,-0.98372 7.9375,-3.1875 v -1.4062 c 0,-1.5745 -1.3456,-2.7685 -2.9375,-3.0312 -1.1337,-0.18691 -2.3223,-0.27701 -3.4375,-0.25 z"
       style="opacity:0.4;fill:url(#linearGradient3144)" />
    <path
       id="path3530"
       d="m 17.507,13.866 c 0,-1.6634 1.7452,-2.5059 3.2188,-2.926 2.2169,-0.63347 3.9961,-0.53651 5.849,0 1.5473,0.44817 2.9256,1.3639 2.9256,2.926 v 5.4879 c 0,1.5794 -1.3241,3.1781 -2.9256,3.1781 h -5.4496 c -1.5299,0 -3.6724,1.6742 -3.6724,3.6586 v 2.3099 h -2.5782 c -1.7033,0 -2.5052,-1.2583 -2.9256,-2.926 -0.58512,-2.3163 -0.61112,-4.0486 0,-5.8542 0.59162,-1.7539 1.2244,-3.1343 2.9256,-3.1343 h 2.6324 6.1422 v 0.01151 L 17.507,16.57669 v -2.7106 z"
       style="display:inline;fill:none;stroke:url(#linearGradient4137)" />
    <path
       id="path4143"
       d="m 23.781,11.406 c -0.86272,-0.01097 -1.777,0.07912 -2.8125,0.375 -0.67284,0.19184 -1.397,0.50989 -1.875,0.875 -0.478,0.36511 -0.6875,0.69908 -0.6875,1.2188 v 1.7812 l 5.25,0.03125 c 0.50051,0 0.90625,0.40574 0.90625,0.90625 0,0.50051 -0.40574,0.90625 -0.90625,0.90625 h -6.1562 -2.625 c -0.61088,0 -0.86615,0.15916 -1.1875,0.5625 -0.32135,0.40334 -0.61931,1.0868 -0.90625,1.9375 -0.55343,1.6352 -0.52969,3.1232 0.03125,5.3438 0.18998,0.75359 0.45754,1.3557 0.78125,1.7188 0.32371,0.3631 0.6513,0.53125 1.2812,0.53125 h 1.6562 v -1.4062 c 0,-1.3156 0.69306,-2.4262 1.5625,-3.2188 0.86944,-0.7926 1.9413,-1.3438 3.0312,-1.3438 h 5.4375 c 1.0042,0 2.0313,-1.2051 2.0312,-2.2812 v -5.4688 c 0,-0.51638 -0.16388,-0.86278 -0.5625,-1.2188 -0.39862,-0.35602 -1.0344,-0.67679 -1.7188,-0.875 -0.86734,-0.25114 -1.6686,-0.36404 -2.5312,-0.375 z"
       style="opacity:0.4;fill:none;stroke:url(#linearGradient4153)" />
  </g>
</svg>
